<?xml version="1.0" encoding="utf-8"?>
<svg viewBox="152.11968994140625 102.24435424804688 164.58853149414062 166.4588851928711" xmlns="http://www.w3.org/2000/svg">
  <path id="path1468" style="fill: rgb(255, 196, 31); fill-opacity: 1; fill-rule: evenodd; stroke: none;" d="M 195.754 248.725 L 195.754 248.725 L 207.453 200.598 L 207.453 200.598 C 219.47 203.521 231.578 196.144 234.501 184.124 C 237.422 172.109 230.047 159.999 218.03 157.078 L 218.03 157.078 L 229.724 108.952 L 229.724 108.952 C 268.322 118.335 292.007 157.225 282.626 195.823 C 273.246 234.417 234.352 258.103 195.754 248.725"/>
  <path id="path1470" style="fill: rgb(255, 233, 186); fill-opacity: 1; fill-rule: evenodd; stroke: none;" d="M 231.96 163.522 L 231.96 167.346 C 231.343 166.317 230.644 165.333 229.867 164.411 C 230.435 164.27 231.125 163.977 231.96 163.522 Z M 231.96 146.185 L 231.96 151.354 C 229.901 155.495 228.042 159.728 227.778 162.24 C 225.1 159.808 221.794 157.988 218.03 157.078 L 218.03 157.078 L 221.349 143.423 C 219.984 152.501 220.066 159.42 224.83 153.467 C 227.435 150.21 230.156 147.449 231.96 146.185 Z M 209.975 212.214 C 208.251 219.3 204.383 251.851 202.922 236.485 C 202.494 231.985 202.15 227.56 201.85 223.646 L 207.453 200.598 L 207.453 200.598 C 217.222 202.972 227.055 198.541 231.96 190.344 L 231.96 201.927 C 228.246 200.065 225.385 200.14 224.616 204.228 C 222.645 214.718 219.759 231.337 220.112 222.758 C 220.126 222.395 211.93 204.169 209.975 212.214 Z M 231.96 151.354 L 231.96 146.185 C 234.17 144.633 235.007 145.338 232.563 150.152 C 232.362 150.553 232.161 150.951 231.96 151.354 Z M 231.96 167.346 L 231.96 163.522 C 232.454 163.247 232.999 162.92 233.597 162.53 C 243.218 156.206 254.902 153.272 245.296 161.905 C 241.012 165.761 236.397 168.611 233.662 170.85 C 233.195 169.635 232.624 168.462 231.96 167.346 Z M 231.96 190.344 C 233.086 188.456 233.952 186.372 234.501 184.124 C 235.107 181.629 235.269 179.123 235.038 176.699 C 235.457 176.825 235.915 176.949 236.416 177.07 C 248.408 179.987 276.125 194.228 263.586 191.178 C 251.05 188.132 228.164 184.879 234.724 188.783 C 241.278 192.686 247.899 205.844 256.519 213.133 C 265.137 220.425 259.583 224.272 250.962 216.979 C 245.701 212.525 237.781 204.848 231.96 201.927 L 231.96 190.344 L 231.96 190.344"/>
  <path id="path1472" style="fill: rgb(230, 130, 7); fill-opacity: 1; fill-rule: evenodd; stroke: none;" d="M 238.477 242.234 C 235.126 229.875 226.843 211.694 227.3 219.315 C 227.762 226.931 237.991 251.356 238.477 242.234"/>
  <path id="path1474" style="fill: rgb(230, 130, 7); fill-opacity: 1; fill-rule: evenodd; stroke: none;" d="M 278.464 177.473 C 265.427 181.235 241.866 178.393 251.899 172.75 C 261.931 167.104 287.966 174.013 278.464 177.473"/>
  <path id="path1476" style="fill: rgb(230, 130, 7); fill-opacity: 1; fill-rule: evenodd; stroke: none;" d="M 243.468 152.802 C 250.375 148.131 276.809 132.035 262.944 134.44 C 249.079 136.843 233.301 158.99 243.468 152.802"/>
  <path id="path1478" style="fill: rgb(230, 130, 7); fill-opacity: 1; fill-rule: evenodd; stroke: none;" d="M 225.744 230.481 C 227.072 236.288 227.116 246.3 226.392 249.463 C 226.038 249.536 225.681 249.599 225.325 249.662 C 225.193 249.303 225.052 248.815 224.908 248.173 C 222.945 239.618 223.916 221.374 225.744 230.481"/>
  <path id="path1480" style="fill: rgb(230, 130, 7); fill-opacity: 1; fill-rule: evenodd; stroke: none;" d="M 254.82 203.483 C 259.14 207.199 270.975 210.239 277.106 210.948 C 277.448 210.266 277.777 209.573 278.096 208.874 C 277.557 208.639 276.935 208.381 276.216 208.102 C 259.844 201.818 243.241 201.244 254.82 203.483"/>
  <path id="path1482" style="fill: rgb(230, 130, 7); fill-opacity: 1; fill-rule: evenodd; stroke: none;" d="M 240.179 128.33 C 244.065 119.459 240.334 111.046 234.269 119.388 C 228.197 127.725 235.216 139.247 240.179 128.33"/>
  <path id="path1484" style="fill: rgb(230, 130, 7); fill-opacity: 1; fill-rule: evenodd; stroke: none;" d="M 234.872 211.917 C 238.72 217.47 253.62 248.802 249.583 234.541 C 245.542 220.282 228.403 200.527 234.872 211.917"/>
</svg>