<?xml version="1.0" encoding="utf-8"?>
<svg viewBox="0 0 500 500" xmlns="http://www.w3.org/2000/svg">
  <g transform="matrix(3.782278, 0, 0, -3.782278, 240.726212, 305.364655)" id="g544">
    <path id="path546" style="fill:#ffde23;fill-opacity:1;fill-rule:nonzero;stroke:none" d="m 0,0 c -10.51,0 -19.031,8.521 -19.031,19.03 0,10.511 8.521,19.031 19.031,19.031 10.51,0 19.03,-8.52 19.03,-19.031 C 19.03,8.521 10.51,0 0,0 M 2.179,70.03 C -27.191,70.03 -51,46.221 -51,16.851 c 0,-29.37 23.809,-53.179 53.179,-53.179 29.37,0 53.179,23.809 53.179,53.179 0,29.37 -23.809,53.179 -53.179,53.179"/>
  </g>
  <g transform="matrix(3.782278, 0, 0, -3.782278, 181.751877, 240.560379)" id="g548">
    <path id="path550" style="fill:#ffde23;fill-opacity:1;fill-rule:nonzero;stroke:none" d="m 0,0 c 0,9.659 7.83,17.488 17.489,17.488 8.254,0 15.168,-5.72 17.005,-13.412 -1.081,9.483 -9.129,16.851 -18.902,16.851 -10.51,0 -19.03,-8.52 -19.03,-19.031 0,-9.772 7.368,-17.82 16.851,-18.901 C 5.721,-15.168 0,-8.254 0,0"/>
  </g>
  <path id="path554" style="fill: rgb(255, 230, 114); fill-opacity: 1; fill-rule: nonzero; stroke: none;" d="M 240.728 305.363 C 200.975 305.363 168.747 273.135 168.747 233.389 C 168.747 193.631 200.975 161.407 240.728 161.407 C 280.478 161.407 312.703 193.631 312.703 233.389 C 312.703 273.135 280.478 305.363 240.728 305.363 M 240.728 40.492 C 134.192 40.492 47.832 126.852 47.832 233.389 C 47.832 339.916 134.192 426.282 240.728 426.282 C 347.258 426.282 433.618 339.916 433.618 233.389 C 433.618 126.852 347.258 40.492 240.728 40.492"/>
  <g transform="matrix(3.782278, 0, 0, -3.782278, 318.408813, 56.788864)" id="g556">
    <path id="path558" style="fill:#ffd86f;fill-opacity:1;fill-rule:nonzero;stroke:none" d="M 0,0 -7.894,-24.853 5.819,-3.023 C 3.955,-1.896 2.011,-0.886 0,0 m -35.596,-95.429 8.535,19.668 -11.277,-18.734 c 0.903,-0.337 1.817,-0.649 2.742,-0.934 m 45.612,71.833 -12.255,-12.254 14.454,10.997 -2.199,1.257 z M 9.602,-87.83 c 0.951,0.698 1.878,1.429 2.777,2.19 L -0.196,-68.527 9.602,-87.83 Z M -39.543,0.647 c -1.627,-0.654 -3.211,-1.389 -4.75,-2.201 l 10.478,-22.042 -5.728,24.243 z m 69.971,-45.608 c -0.049,1.468 -0.16,2.92 -0.33,4.355 l -22.596,-4.355 22.926,0 z m -82.625,11.939 -1.571,-3.457 14.021,-3.112 -12.45,6.569 z m 6.332,-41.178 2.199,-1.257 9.112,13.332 -11.311,-12.075 z m -24.369,16.002 c 0.445,-1.93 1.002,-3.816 1.659,-5.655 l 25.804,11.037 -27.463,-5.382 z"/>
  </g>
</svg>