<?xml version="1.0" encoding="utf-8"?>
<svg viewBox="152.11968994140625 102.24435424804688 164.58853149414062 166.4588851928711" xmlns="http://www.w3.org/2000/svg">
  <path id="path1164" style="fill: rgb(245, 0, 0); fill-opacity: 1; fill-rule: evenodd; stroke: none;" d="M 204.926 109.838 C 213.417 107.454 215.133 124.543 222.667 136.071 C 230.199 147.594 233.463 144.522 239.35 153.965 C 245.24 163.409 242.567 168.527 249.076 178.965 C 255.585 189.4 263.344 190.773 270.164 201.706 C 275.121 209.654 274.527 215.9 279.95 224.592 C 285.534 233.537 297.933 237.92 293.625 242.644 C 292.094 244.319 274.923 254.896 266.883 258.717 C 263.502 260.324 263.812 256.527 261.769 253.741 C 258.8 249.686 256.192 250.905 250.612 241.953 C 245.188 233.261 245.305 228.257 240.346 220.305 C 233.525 209.369 225.766 207.999 219.257 197.561 C 212.748 187.123 215.422 182.006 209.532 172.562 C 203.647 163.118 200.379 166.191 192.85 154.667 C 187.21 146.04 187.67 138.755 183.714 134.976 C 180.157 131.583 176.946 129.433 180.07 126.41 C 186.61 120.076 197.231 112 204.926 109.838"/>
  <path id="path1166" style="fill: rgb(255, 173, 180); fill-opacity: 1; fill-rule: evenodd; stroke: none;" d="M 200.467 113.207 C 208.932 110.785 210.956 128.372 218.367 139.699 C 225.779 151.028 229.05 147.968 234.839 157.254 C 240.63 166.538 237.928 171.617 244.328 181.873 C 250.724 192.135 258.436 193.429 265.145 204.178 C 270.018 211.999 269.378 218.169 274.714 226.714 C 280.198 235.51 292.507 239.745 288.184 244.44 C 287.508 245.175 284.052 248.064 279.199 250.476 C 276.55 251.797 276.829 251.554 276.557 248.805 C 276.171 244.885 267.378 241.521 262.783 234.153 C 257.451 225.606 258.091 219.437 253.218 211.621 C 246.51 200.868 238.8 199.572 232.401 189.311 C 225.999 179.05 228.703 173.977 222.909 164.691 C 217.124 155.407 213.853 158.467 206.441 147.138 C 199.029 135.813 198.571 120.201 189.977 122.09 C 187.808 122.57 188.564 120.489 190.431 119.213 C 193.355 117.217 198.901 113.655 200.467 113.207"/>
  <path id="path1168" style="fill: rgb(245, 0, 0); fill-opacity: 1; fill-rule: evenodd; stroke: none;" d="M 195.813 116.112 C 204.28 113.69 206.305 131.275 213.715 142.6 C 221.124 153.929 224.395 150.872 230.184 160.155 C 235.975 169.439 233.275 174.516 239.673 184.775 C 246.074 195.036 253.786 196.33 260.49 207.082 C 265.364 214.9 264.727 221.069 270.058 229.615 C 275.546 238.413 288.259 243.431 283.531 247.343 C 282.93 247.844 282.161 247.097 281.902 245.708 C 281.183 241.838 272.723 238.424 268.128 231.061 C 262.797 222.51 263.437 216.344 258.564 208.527 C 251.855 197.772 244.146 196.476 237.747 186.216 C 231.346 175.957 234.049 170.878 228.255 161.596 C 222.465 152.312 219.199 155.37 211.788 144.041 C 204.375 132.714 203.917 117.105 195.323 118.997 C 193.157 119.474 193.91 117.394 195.777 116.118 C 198.7 114.118 194.249 116.558 195.813 116.112"/>
  <path id="path1170" style="fill: rgb(255, 196, 201); fill-opacity: 1; fill-rule: evenodd; stroke: none;" d="M 183.669 125.134 C 192.115 122.683 194.009 140.056 201.309 151.203 C 208.606 162.351 211.885 159.306 217.583 168.446 C 223.285 177.581 220.559 182.623 226.861 192.725 C 233.162 202.827 240.827 204.05 247.43 214.636 C 252.228 222.331 251.55 228.436 256.799 236.855 C 262.199 245.513 275.111 250.335 270.089 254.288 C 269.145 255.031 268.689 253.993 268.48 252.683 C 267.866 248.847 259.392 245.545 254.868 238.291 C 249.619 229.873 250.299 223.772 245.498 216.073 C 238.897 205.494 231.23 204.266 224.927 194.164 C 218.63 184.065 221.354 179.024 215.654 169.885 C 209.952 160.744 206.676 163.793 199.378 152.644 C 192.078 141.494 191.729 126.058 183.16 127.991 C 181.001 128.477 181.765 126.418 183.633 125.142 C 186.56 123.146 182.111 125.591 183.669 125.134"/>
</svg>