<?xml version="1.0" encoding="utf-8"?>
<svg viewBox="198.981 196.184 72.408 71.708" xmlns="http://www.w3.org/2000/svg">
  <path id="path524" style="fill: rgb(249, 171, 46); fill-opacity: 1; fill-rule: nonzero; stroke: none;" d="M 234.48 262.011 L 234.642 262.209 C 236.356 264.097 239.027 265.032 241.56 264.734 C 244.092 264.438 246.438 262.952 247.884 260.852 C 247.946 260.761 248.003 260.668 248.062 260.575 C 248.378 260.648 248.701 260.694 249.038 260.678 C 251.421 260.549 252.909 258.102 253.868 255.917 C 255.061 253.198 256.122 250.298 255.897 247.339 C 255.673 244.377 253.839 241.351 250.962 240.616 C 249.092 240.139 247.102 240.678 245.365 241.518 C 244.098 242.129 242.871 242.969 242 244.054 C 241.916 244.014 241.839 243.962 241.753 243.927 C 240.14 243.273 238.256 243.719 236.826 244.737 C 236.61 244.417 236.369 244.113 236.065 243.852 C 234.907 242.859 233.261 242.579 231.757 242.838 C 231.274 241.407 230.266 240.12 229.005 239.228 C 229.667 237.795 230.264 236.332 230.562 234.787 C 230.928 232.888 230.789 230.828 229.842 229.156 C 230.245 228.903 230.621 228.595 230.958 228.263 C 232.349 226.895 233.325 224.914 232.905 223.008 C 232.868 222.844 232.802 222.695 232.749 222.541 C 233.697 222.11 234.58 221.499 235.416 220.865 C 236.873 219.762 238.265 218.573 239.582 217.305 C 240.232 216.679 240.881 216.009 241.203 215.166 C 241.512 214.361 241.477 213.471 241.223 212.639 C 242.031 212.507 242.835 212.312 243.624 212.09 C 246.714 211.223 249.694 209.996 252.595 208.622 C 253.547 208.17 254.667 207.303 254.294 206.318 C 253.93 205.352 252.562 205.411 251.557 205.647 C 248.493 206.368 245.428 207.088 242.364 207.809 C 245.077 205.018 247.463 201.913 249.465 198.575 C 244.035 200.476 239.166 203.932 235.548 208.401 C 234.033 208.201 232.436 208.365 231.008 208.87 C 227.626 210.064 224.976 212.682 222.447 215.223 C 222.214 215.455 221.98 215.7 221.768 215.96 C 219.982 215.808 218.096 216.249 216.858 217.525 C 215.707 218.711 215.279 220.402 214.896 222.01 C 214.689 222.88 214.507 223.848 214.627 224.713 C 214.265 224.872 213.917 225.066 213.588 225.312 C 211.828 226.622 211.122 228.903 210.705 231.058 C 210.039 234.481 209.827 237.993 210.077 241.472 C 210.129 242.199 210.234 242.978 210.645 243.555 C 210.412 244.165 210.26 244.804 210.228 245.463 C 210.077 248.655 212.403 251.366 214.584 253.701 C 215.912 255.122 217.523 256.638 219.323 257.05 C 219.336 257.565 219.401 258.079 219.558 258.582 C 220.437 261.427 223.497 262.998 226.398 263.679 C 228.92 264.273 231.835 264.346 233.822 262.68 C 234.063 262.478 234.278 262.249 234.48 262.011"/>
  <path id="path844" style="fill: rgb(245, 124, 78); fill-opacity: 1; fill-rule: nonzero; stroke: none;" d="M 245.471 210.585 C 243.802 211.054 242.072 211.419 240.346 211.266 C 238.62 211.112 236.881 210.38 235.834 208.998 C 239.546 203.508 245.058 199.26 251.312 197.07 C 249.31 200.408 246.923 203.513 244.211 206.305 C 247.275 205.583 250.34 204.863 253.404 204.141 C 254.408 203.906 255.777 203.848 256.141 204.813 C 256.514 205.799 255.395 206.665 254.442 207.117 C 251.541 208.49 248.561 209.718 245.471 210.585"/>
  <path id="path846" style="fill: rgb(247, 152, 97); fill-opacity: 1; fill-rule: nonzero; stroke: none;" d="M 241.429 215.8 C 240.112 217.067 238.72 218.257 237.263 219.361 C 235.971 220.338 234.572 221.274 232.975 221.55 C 230.195 222.031 227.518 220.452 225.137 218.936 C 224.071 218.257 222.877 217.352 222.902 216.087 C 222.924 215.147 223.629 214.383 224.293 213.718 C 226.823 211.178 229.472 208.56 232.855 207.364 C 236.236 206.169 240.566 206.855 242.492 209.878 C 243.203 210.995 243.521 212.425 243.051 213.661 C 242.729 214.504 242.081 215.174 241.429 215.8"/>
  <path id="path848" style="fill: rgb(245, 124, 78); fill-opacity: 1; fill-rule: nonzero; stroke: none;" d="M 216.744 220.506 C 216.41 221.911 216.134 223.576 217.105 224.645 C 217.682 225.28 218.56 225.528 219.39 225.746 C 222.162 226.478 224.934 227.207 227.705 227.938 C 228.481 228.142 229.278 228.348 230.075 228.256 C 231.126 228.131 232.05 227.5 232.804 226.758 C 234.196 225.391 235.172 223.407 234.752 221.503 C 234.221 219.105 231.795 217.701 229.605 216.59 C 227.861 215.705 226.08 214.807 224.146 214.512 C 222.213 214.214 220.066 214.617 218.705 216.02 C 217.554 217.207 217.126 218.898 216.744 220.506"/>
  <path id="path850" style="fill: rgb(247, 152, 97); fill-opacity: 1; fill-rule: nonzero; stroke: none;" d="M 212.552 229.552 C 211.886 232.976 211.675 236.488 211.924 239.968 C 211.985 240.831 212.116 241.776 212.758 242.358 C 213.482 243.013 214.58 242.968 215.549 242.859 C 220.58 242.287 225.531 241.01 230.21 239.075 C 231.108 237.209 232.015 235.315 232.409 233.283 C 232.801 231.248 232.627 229.022 231.485 227.292 C 229.813 224.763 226.573 223.875 223.612 223.222 C 220.855 222.614 217.701 222.121 215.434 223.806 C 213.675 225.116 212.97 227.398 212.552 229.552"/>
  <path id="path852" style="fill: rgb(245, 124, 78); fill-opacity: 1; fill-rule: nonzero; stroke: none;" d="M 222.094 236.126 C 219.799 236.389 217.486 236.97 215.571 238.262 C 213.655 239.555 212.185 241.65 212.076 243.958 C 211.924 247.15 214.251 249.859 216.432 252.196 C 218.163 254.052 220.377 256.075 222.867 255.581 C 224.129 255.331 225.166 254.461 226.118 253.597 C 227.802 252.073 229.418 250.473 230.958 248.802 C 232.236 247.418 233.511 245.888 233.836 244.031 C 234.311 241.327 232.534 238.583 230.125 237.263 C 227.714 235.944 224.824 235.81 222.094 236.126"/>
  <path id="path854" style="fill: rgb(247, 152, 97); fill-opacity: 1; fill-rule: nonzero; stroke: none;" d="M 229.412 243.238 C 226.769 245.067 224.521 247.463 222.862 250.215 C 221.619 252.281 220.692 254.773 221.404 257.077 C 222.285 259.923 225.343 261.492 228.243 262.175 C 230.767 262.767 233.683 262.84 235.669 261.176 C 236.98 260.077 237.654 258.409 238.161 256.776 C 238.967 254.189 239.476 251.51 239.68 248.808 C 239.855 246.494 239.672 243.859 237.911 242.347 C 236.747 241.347 235.082 241.069 233.568 241.337 C 232.057 241.607 230.674 242.363 229.412 243.238"/>
  <path id="path856" style="fill: rgb(245, 124, 78); fill-opacity: 1; fill-rule: nonzero; stroke: none;" d="M 235.159 248.796 C 233.866 252.779 233.673 257.604 236.489 260.705 C 238.203 262.592 240.874 263.527 243.408 263.229 C 245.94 262.934 248.284 261.447 249.73 259.346 C 250.135 258.759 250.477 258.116 250.636 257.422 C 250.971 255.957 250.471 254.442 249.941 253.038 C 249.15 250.944 248.277 248.883 247.325 246.858 C 246.483 245.068 245.433 243.168 243.601 242.425 C 241.761 241.676 239.569 242.36 238.098 243.695 C 236.629 245.03 235.77 246.908 235.159 248.796"/>
  <path id="path858" style="fill: rgb(247, 152, 97); fill-opacity: 1; fill-rule: nonzero; stroke: none;" d="M 255.715 254.411 C 256.908 251.692 257.969 248.793 257.744 245.833 C 257.521 242.872 255.686 239.847 252.809 239.11 C 250.939 238.633 248.95 239.172 247.212 240.011 C 245.287 240.941 243.44 242.384 242.826 244.432 C 242.421 245.773 242.595 247.219 242.905 248.587 C 243.5 251.221 244.593 253.742 246.107 255.979 C 247.23 257.639 248.881 259.278 250.885 259.171 C 253.268 259.044 254.755 256.596 255.715 254.411"/>
</svg>