<?xml version="1.0" encoding="utf-8"?>
<svg viewBox="198.981 196.184 72.408 71.708" xmlns="http://www.w3.org/2000/svg">
  <defs>
    <radialGradient id="radialGradient184" spreadMethod="pad" gradientTransform="matrix(318.620716, 0, 0, 318.620743, 56.040203, 158.74675)" gradientUnits="userSpaceOnUse" r="1" cy="0" cx="0">
      <stop id="stop180" offset="0" style="stop-opacity:1;stop-color:#ecd9d7"/>
      <stop id="stop182" offset="1" style="stop-opacity:1;stop-color:#caab95"/>
    </radialGradient>
    <radialGradient id="radialGradient200" spreadMethod="pad" gradientTransform="matrix(318.620716, 0, 0, 318.620743, 56.040203, 158.74675)" gradientUnits="userSpaceOnUse" r="1" cy="0" cx="0">
      <stop id="stop196" offset="0" style="stop-opacity:1;stop-color:#ecd9d7"/>
      <stop id="stop198" offset="1" style="stop-opacity:1;stop-color:#caab95"/>
    </radialGradient>
  </defs>
  <path id="path186" style="fill: url(#radialGradient184); fill-opacity: 1; fill-rule: nonzero; stroke: none;" d="M 259.207 251.859 C 256.971 251.859 254.684 250.834 253.46 248.962 C 252.558 247.583 252.357 245.749 252.925 244.226 C 252.92 244.029 252.928 243.831 252.949 243.633 C 251.946 244.801 251.216 246.22 250.263 247.447 C 249.248 248.749 247.712 249.889 246.132 249.889 C 245.824 249.889 245.514 249.845 245.206 249.751 C 244.751 249.612 244.361 249.369 244.031 249.06 C 242.78 248.937 241.53 248.302 240.453 247.589 C 239.203 246.762 237.88 245.415 238.345 243.99 C 238.538 243.401 239.007 242.952 239.46 242.529 C 242.021 240.134 244.581 237.739 247.142 235.344 C 246.659 235.325 246.177 235.273 245.705 235.188 C 244.283 234.935 243.704 234.78 242.821 234.408 C 242.808 234.408 242.795 234.408 242.784 234.408 C 242.766 234.408 242.749 234.408 242.732 234.408 C 242.714 234.409 242.696 234.409 242.678 234.409 C 242.649 234.409 242.62 234.408 242.591 234.404 C 241.1 234.223 239.876 232.98 239.431 231.545 C 238.985 230.11 239.221 228.535 239.776 227.139 C 241.248 223.442 244.923 220.858 248.849 220.204 C 249.605 220.078 250.366 220.018 251.128 220.018 C 253.823 220.018 256.515 220.77 258.929 222.025 C 261.373 222.777 263.659 224.027 265.566 225.728 C 268.953 228.751 271.073 233.199 271.102 237.739 C 271.13 242.277 269.008 246.821 265.397 249.571 C 263.617 250.926 261.45 251.858 259.212 251.859 C 259.21 251.859 259.209 251.859 259.207 251.859"/>
  <path id="path202" style="fill: url(#radialGradient200); fill-opacity: 1; fill-rule: nonzero; stroke: none;" d="M 228.091 250.058 C 227.579 250.058 227.067 249.98 226.57 249.813 C 224.898 249.251 223.662 247.847 222.625 246.421 C 221.046 244.253 219.734 241.904 218.426 239.562 C 218.326 239.382 218.225 239.201 218.128 239.018 C 218.071 239.473 217.972 239.913 217.75 240.315 C 217.141 241.416 215.903 241.801 214.595 241.801 C 213.868 241.801 213.12 241.682 212.445 241.502 C 208.663 240.493 204.964 238.236 203.409 234.644 C 201.9 231.157 202.713 226.979 204.765 223.782 C 206.818 220.583 209.958 218.235 213.236 216.314 C 216.649 214.314 220.406 212.671 224.36 212.556 C 224.489 212.552 224.617 212.55 224.745 212.55 C 228.584 212.55 232.565 214.217 234.557 217.486 C 236.145 220.092 236.288 223.42 235.365 226.33 C 234.605 228.729 233.013 231.015 230.655 231.894 C 230.509 231.949 230.359 231.988 230.211 232.032 C 231.655 234.221 233.096 236.45 233.891 238.946 C 234.712 241.524 234.77 244.467 233.431 246.817 C 232.352 248.712 230.221 250.059 228.091 250.058"/>
  <path id="path452" style="fill: rgb(126, 86, 50); fill-opacity: 1; fill-rule: nonzero; stroke: none;" d="M 219.98 242.235 C 221.018 243.661 222.254 245.065 223.925 245.627 C 226.489 246.489 229.448 244.981 230.787 242.631 C 232.126 240.28 232.067 237.337 231.247 234.759 C 230.426 232.182 228.917 229.888 227.426 227.631 C 226.507 226.241 225.43 224.737 223.802 224.377 C 222.147 224.012 220.51 224.963 219.121 225.934 C 217.923 226.771 216.741 227.673 215.874 228.85 C 215.007 230.026 214.483 231.526 214.756 232.962 C 214.919 233.825 215.354 234.608 215.781 235.375 C 217.09 237.718 218.402 240.066 219.98 242.235"/>
  <path id="path454" style="fill: rgb(126, 86, 50); fill-opacity: 1; fill-rule: nonzero; stroke: none;" d="M 238.892 229.649 C 240.733 230.488 241.069 230.646 243.061 231.002 C 245.052 231.358 247.213 231.183 248.921 230.098 C 250.001 229.412 250.898 228.26 250.846 226.982 C 250.803 225.919 250.111 224.975 249.27 224.324 C 247.913 223.273 246.099 222.834 244.412 223.148 C 242.725 223.462 241.19 224.524 240.302 225.993 C 239.441 226.464 239.577 228.945 238.892 229.649"/>
  <path id="path456" style="fill: rgb(126, 86, 50); fill-opacity: 1; fill-rule: nonzero; stroke: none;" d="M 255.378 222.557 C 255.009 220.016 252.604 218.351 250.417 217.004 C 254.955 216.926 259.536 218.52 262.922 221.542 C 266.309 224.564 268.429 229.013 268.458 233.552 C 268.486 238.091 266.364 242.634 262.753 245.384 C 260.973 246.739 258.806 247.671 256.568 247.673 C 254.331 247.674 252.041 246.649 250.816 244.776 C 249.592 242.903 249.648 240.191 251.182 238.562 C 249.671 239.829 248.829 241.704 247.618 243.26 C 246.407 244.816 244.448 246.14 242.562 245.565 C 240.433 244.914 239.651 242.094 240.408 240 C 241.165 237.907 242.967 236.397 244.694 234.991 C 246.754 233.314 248.814 231.637 250.873 229.96 C 252.047 229.004 253.237 228.033 254.128 226.808 C 255.02 225.584 255.596 224.057 255.378 222.557"/>
  <path id="path458" style="fill: rgb(159, 109, 65); fill-opacity: 1; fill-rule: nonzero; stroke: none;" d="M 254.717 240.543 C 255.436 239.083 254.888 236.877 253.289 236.573 C 251.817 236.292 250.535 237.798 250.32 239.282 C 249.941 241.893 251.915 244.508 254.446 245.256 C 256.977 246.003 259.814 245.086 261.765 243.309 C 263.715 241.531 264.858 239.004 265.4 236.421 C 266.138 232.905 265.822 229.139 264.292 225.888 C 262.868 222.859 260.438 220.359 257.597 218.588 C 254.221 216.482 250.13 215.365 246.204 216.018 C 242.279 216.671 238.604 219.255 237.132 222.953 C 236.577 224.348 236.341 225.924 236.787 227.358 C 237.231 228.793 238.456 230.036 239.946 230.218 C 241.438 230.4 243.051 229.287 243.163 227.789 C 243.197 227.323 243.099 226.842 243.226 226.392 C 243.523 225.348 244.966 225.001 245.929 225.501 C 246.894 226.001 247.441 227.046 247.798 228.072 C 244.137 231.495 240.477 234.919 236.816 238.342 C 236.363 238.765 235.894 239.214 235.701 239.803 C 235.236 241.228 236.559 242.575 237.809 243.402 C 239.361 244.431 241.275 245.322 243.031 244.703 C 244.151 244.309 244.976 243.373 245.75 242.474 C 247.243 240.738 248.736 239.003 250.229 237.267 C 251.267 236.06 252.488 234.759 254.078 234.677 C 255.567 234.599 257.008 235.824 257.17 237.308 C 257.332 238.791 256.189 240.298 254.717 240.543"/>
  <path id="path460" style="fill: rgb(159, 109, 65); fill-opacity: 1; fill-rule: nonzero; stroke: none;" d="M 210.592 212.127 C 214.005 210.128 217.762 208.485 221.716 208.37 C 225.671 208.254 229.854 209.921 231.913 213.299 C 233.501 215.906 233.644 219.234 232.721 222.143 C 231.96 224.542 230.369 226.829 228.011 227.707 C 226.216 228.376 224.232 228.158 222.321 228.303 C 219.46 228.52 216.294 230.014 215.699 232.821 C 215.465 233.924 215.652 235.141 215.106 236.128 C 214.158 237.841 211.692 237.82 209.8 237.316 C 206.019 236.306 202.32 234.049 200.765 230.458 C 199.256 226.971 200.069 222.793 202.121 219.595 C 204.173 216.397 207.314 214.048 210.592 212.127"/>
</svg>