<?xml version="1.0" encoding="utf-8"?>
<svg viewBox="198.981 196.184 72.408 71.708" xmlns="http://www.w3.org/2000/svg">
  <path id="path514" style="fill:#f9ab2e;fill-opacity:1;fill-rule:nonzero;stroke:none" d="M 213.51 247.416 C 215.817 248.239 218.637 247.858 220.331 246.088 L 220.563 245.788 C 221.906 245.003 222.682 244.394 224.398 242.792 C 224.97 242.259 225.509 241.68 226.006 241.068 C 226.627 246.751 227.249 252.434 227.87 258.116 C 227.979 259.12 228.107 260.174 228.687 261 C 230.091 262.999 233.143 262.59 235.445 261.768 C 237.427 261.06 239.478 260.05 240.862 258.538 C 241.589 258.41 242.286 258.138 242.913 257.679 C 245.509 255.782 245.695 251.931 244.849 248.83 C 244.182 246.386 243.043 244.046 242.499 241.595 C 242.738 241.816 242.989 242.019 243.25 242.206 C 244.682 244.435 247.271 245.967 249.954 246.139 C 253.595 246.371 257.171 244.386 259.357 241.464 C 261.542 238.543 262.445 234.804 262.417 231.156 C 262.359 223.755 258.505 216.544 252.554 212.144 C 246.605 207.744 238.726 206.16 231.471 207.626 C 227.385 208.451 223.518 210.215 220.146 212.67 C 215.021 215.134 210.526 219.008 207.919 224.04 C 204.934 229.8 204.713 237.123 208.098 242.658 C 209.377 244.747 211.202 246.595 213.51 247.416"/>
  <path id="path670" style="fill:#7e5632;fill-opacity:1;fill-rule:nonzero;stroke:none" d="M 221.271 244.696 C 224.166 243.115 224.701 242.831 227.113 240.58 C 229.525 238.33 231.407 235.338 231.662 232.05 C 231.823 229.97 231.198 227.671 229.479 226.491 C 228.05 225.507 226.141 225.487 224.469 225.948 C 221.77 226.692 219.425 228.628 218.185 231.138 C 216.945 233.647 216.831 236.687 217.879 239.282 C 217.653 240.867 221.023 243.115 221.271 244.696"/>
  <path id="path672" style="fill:#7e5632;fill-opacity:1;fill-rule:nonzero;stroke:none" d="M 228.137 216.251 C 224.458 214.247 219.934 215.759 216.038 217.296 C 220.374 211.298 226.931 206.879 234.186 205.414 C 241.441 203.95 249.319 205.532 255.27 209.932 C 261.221 214.334 265.074 221.543 265.131 228.944 C 265.159 232.592 264.258 236.331 262.071 239.252 C 259.886 242.174 256.31 244.159 252.669 243.927 C 249.027 243.694 245.543 240.968 244.918 237.374 C 245.094 240.584 246.717 243.515 247.563 246.616 C 248.41 249.719 248.223 253.57 245.627 255.467 C 242.697 257.61 238.253 255.874 236.261 252.838 C 234.269 249.803 234.061 245.975 233.914 242.348 C 233.739 238.022 233.565 233.694 233.391 229.367 C 233.291 226.899 233.186 224.399 232.461 222.038 C 231.735 219.678 230.305 217.432 228.137 216.251"/>
  <path id="path674" style="fill:#9f6d41;fill-opacity:1;fill-rule:nonzero;stroke:none" d="M 250.959 234.696 C 249.757 232.331 246.343 230.89 244.382 232.679 C 242.577 234.327 243.289 237.471 245.014 239.203 C 248.051 242.25 253.394 242.23 256.843 239.658 C 260.293 237.086 261.87 232.488 261.457 228.206 C 261.045 223.922 258.863 219.96 256.025 216.728 C 252.158 212.327 246.935 209.058 241.198 207.875 C 235.851 206.772 230.214 207.499 225.125 209.475 C 219.077 211.823 213.618 216.067 210.634 221.828 C 207.649 227.588 207.427 234.911 210.813 240.446 C 212.091 242.535 213.917 244.383 216.225 245.204 C 218.531 246.026 221.351 245.646 223.046 243.876 C 224.741 242.108 224.866 238.915 223.021 237.306 C 222.446 236.804 221.722 236.463 221.259 235.856 C 220.186 234.448 221.145 232.227 222.739 231.458 C 224.334 230.688 226.234 230.998 227.921 231.534 C 228.809 239.658 229.697 247.78 230.585 255.904 C 230.694 256.908 230.822 257.962 231.402 258.788 C 232.807 260.787 235.858 260.378 238.159 259.556 C 241.019 258.536 244.053 256.91 244.963 254.012 C 245.543 252.168 245.129 250.175 244.711 248.286 C 243.907 244.642 243.102 240.996 242.297 237.352 C 241.737 234.816 241.233 231.952 242.678 229.796 C 244.034 227.776 247.042 227.094 249.135 228.334 C 251.229 229.572 252.078 232.536 250.959 234.696"/>
</svg>