<?xml version="1.0" encoding="utf-8"?>
<svg viewBox="198.981 196.184 72.408 71.708" xmlns="http://www.w3.org/2000/svg">
  <path id="path536" style="fill:#f9ab2e;fill-opacity:1;fill-rule:nonzero;stroke:none" d="M 239.091 215.411 C 243.205 216.744 247.388 218.142 250.884 220.688 C 254.38 223.236 257.141 227.162 257.212 231.487 C 257.253 234.03 256.379 236.496 255.36 238.827 C 253.903 242.162 252.025 245.47 249.052 247.567 C 247.409 248.726 245.504 249.46 243.572 250.015 C 236.795 251.958 229.147 251.67 223.112 248.023 C 217.079 244.378 213.129 237.01 214.615 230.118 C 215.441 226.284 217.773 222.942 220.391 220.02 C 222.884 217.236 225.899 214.62 229.579 213.975 C 232.771 213.414 236.008 214.412 239.091 215.411 Z M 228.373 209.934 C 223.924 210.715 220.28 213.878 217.265 217.243 C 214.101 220.774 211.283 224.815 210.283 229.45 C 208.487 237.782 213.261 246.688 220.556 251.095 C 227.851 255.503 237.096 255.852 245.289 253.503 C 247.625 252.834 249.929 251.946 251.915 250.544 C 255.509 248.008 257.779 244.01 259.54 239.979 C 260.772 237.162 261.829 234.18 261.779 231.106 C 261.695 225.878 258.355 221.131 254.128 218.051 C 249.903 214.971 244.847 213.283 239.872 211.671 C 236.145 210.463 232.232 209.256 228.373 209.934"/>
  <path id="path904" style="fill:#fcd0ad;fill-opacity:1;fill-rule:nonzero;stroke:none" d="M 251.767 245.355 C 250.124 246.514 248.219 247.248 246.287 247.803 C 239.509 249.746 231.861 249.458 225.827 245.811 C 219.793 242.166 215.844 234.798 217.329 227.906 C 218.156 224.071 220.488 220.73 223.105 217.808 C 225.599 215.024 228.613 212.408 232.293 211.763 C 235.485 211.202 238.723 212.2 241.805 213.199 C 245.92 214.532 250.103 215.93 253.599 218.476 C 257.095 221.024 259.856 224.95 259.927 229.276 C 259.968 231.818 259.093 234.284 258.075 236.615 C 256.617 239.95 254.74 243.258 251.767 245.355 Z M 262.255 237.767 C 263.487 234.95 264.544 231.968 264.493 228.894 C 264.409 223.666 261.069 218.919 256.843 215.839 C 252.617 212.759 247.561 211.071 242.587 209.459 C 238.86 208.251 234.947 207.046 231.088 207.722 C 226.639 208.503 222.995 211.666 219.98 215.031 C 216.816 218.562 213.997 222.603 212.997 227.238 C 211.201 235.57 215.976 244.476 223.271 248.883 C 230.565 253.291 239.811 253.64 248.004 251.291 C 250.34 250.622 252.644 249.734 254.629 248.332 C 258.224 245.796 260.493 241.798 262.255 237.767"/>
</svg>