<?xml version="1.0" encoding="utf-8"?>
<svg viewBox="198.981 196.184 72.408 71.708" xmlns="http://www.w3.org/2000/svg">
  <defs>
    <radialGradient id="radialGradient264" spreadMethod="pad" gradientTransform="matrix(282.891891, 0, 0, 282.891899, 117.090683, 95.53054)" gradientUnits="userSpaceOnUse" r="1" cy="0" cx="0">
      <stop id="stop260" offset="0" style="stop-opacity:1;stop-color:#ecd9d7"/>
      <stop id="stop262" offset="1" style="stop-opacity:1;stop-color:#caab95"/>
    </radialGradient>
  </defs>
  <path id="path266" style="fill: url(#radialGradient264); fill-opacity: 1; fill-rule: nonzero; stroke: none;" d="M 238.252 259.54 C 238.141 258.739 238.031 257.939 237.92 257.138 C 237.257 257.746 236.594 258.354 235.931 258.962 C 236.102 257.948 236.273 256.934 236.445 255.921 C 233.444 256.355 230.421 256.765 227.4 256.765 C 226.544 256.765 225.687 256.732 224.83 256.657 C 220.751 256.301 216.629 254.905 213.723 252.021 C 212.392 250.701 211.358 249.116 210.41 247.499 C 209.341 245.672 208.357 243.751 207.982 241.668 C 207.276 237.742 208.856 233.673 211.362 230.57 C 213.868 227.467 217.224 225.179 220.589 223.037 C 222.597 221.759 224.668 220.48 226.159 218.624 C 227.65 216.77 228.47 214.182 227.604 211.965 C 227.944 212.332 228.418 212.572 228.915 212.629 C 229.098 211.942 229.281 211.256 229.464 210.57 C 229.832 211.224 230.315 211.814 230.885 212.302 C 230.84 211.317 231.313 210.323 232.107 209.738 C 233.362 211.176 233.443 213.413 234.824 214.728 C 235.74 215.601 237.049 215.892 238.291 216.126 C 245.558 217.491 253.212 218.153 259.554 221.954 C 260.627 222.597 261.667 223.34 262.413 224.344 C 262.993 225.124 263.374 226.035 263.676 226.959 C 265.243 231.756 264.736 237.139 262.561 241.692 C 260.387 246.245 256.61 249.963 252.156 252.335 C 251.055 252.921 249.912 253.429 248.725 253.81 C 248.253 253.962 247.776 254.092 247.296 254.208 C 247.58 254.593 247.942 254.92 248.358 255.154 C 247.905 255.158 247.451 255.163 246.998 255.167 C 247.298 255.519 247.599 255.871 247.899 256.223 C 247.032 256.157 246.164 256.092 245.296 256.027 C 245.528 256.316 245.657 256.688 245.653 257.059 C 245.024 256.932 244.394 256.804 243.765 256.676 C 243.762 257.265 243.758 257.855 243.755 258.445 C 243.051 258.306 242.397 257.92 241.935 257.371 C 241.691 258.094 241.448 258.817 241.204 259.54 C 240.549 259.094 240.053 258.419 239.823 257.661 C 239.487 258.416 238.937 259.076 238.252 259.54"/>
  <path id="path486" style="fill: rgb(207, 84, 41); fill-opacity: 1; fill-rule: nonzero; stroke: none;" d="M 243.306 253.343 C 243.31 252.971 243.181 252.599 242.948 252.309 C 243.816 252.375 244.684 252.44 245.552 252.506 C 245.251 252.154 244.951 251.802 244.65 251.45 C 245.103 251.446 245.557 251.442 246.011 251.437 C 245.551 251.179 245.154 250.812 244.859 250.375 C 244.637 250.046 244.457 249.662 244.114 249.461 C 243.694 249.215 243.164 249.32 242.69 249.433 C 239.869 250.105 237.047 250.777 234.225 251.448 C 234.011 252.713 233.797 253.979 233.583 255.245 C 234.246 254.637 234.909 254.029 235.573 253.421 C 235.683 254.222 235.794 255.022 235.905 255.823 C 236.589 255.358 237.14 254.7 237.475 253.944 C 237.705 254.702 238.201 255.377 238.857 255.823 C 239.1 255.1 239.343 254.377 239.588 253.654 C 240.049 254.204 240.703 254.589 241.408 254.728 C 241.411 254.138 241.414 253.548 241.418 252.959 C 242.047 253.087 242.677 253.215 243.306 253.343"/>
  <path id="path488" style="fill: rgb(248, 163, 130); fill-opacity: 1; fill-rule: nonzero; stroke: none;" d="M 228.538 208.585 C 227.967 208.096 227.484 207.507 227.116 206.852 C 226.934 207.539 226.751 208.225 226.568 208.911 C 226.07 208.855 225.596 208.615 225.256 208.248 C 226.123 210.465 225.303 213.053 223.811 214.907 C 222.32 216.763 220.249 218.042 218.241 219.32 C 214.876 221.462 211.52 223.75 209.014 226.853 C 206.509 229.956 204.928 234.025 205.634 237.95 C 206.009 240.034 206.993 241.955 208.063 243.781 C 209.01 245.399 210.045 246.984 211.375 248.304 C 214.282 251.188 218.404 252.584 222.483 252.94 C 226.562 253.296 230.657 252.705 234.709 252.115 C 236.706 251.825 238.704 251.534 240.702 251.244 C 242.614 250.966 244.537 250.685 246.377 250.093 C 247.564 249.712 248.708 249.204 249.809 248.617 C 254.263 246.246 258.039 242.528 260.213 237.975 C 262.389 233.422 262.895 228.039 261.329 223.242 C 261.026 222.318 260.645 221.407 260.065 220.626 C 259.32 219.623 258.279 218.879 257.207 218.236 C 250.864 214.436 243.211 213.773 235.943 212.408 C 234.701 212.175 233.392 211.884 232.477 211.012 C 231.095 209.696 231.014 207.459 229.76 206.021 C 228.966 206.606 228.492 207.6 228.538 208.585"/>
  <path id="path490" style="fill: rgb(207, 84, 41); fill-opacity: 1; fill-rule: nonzero; stroke: none;" d="M 225.854 251.565 C 222.005 249.573 219.043 246.426 216.796 242.758 C 214.295 238.676 213.117 234.3 214.644 229.645 C 216.077 225.279 219.56 222.471 222.677 219.331 C 225.121 216.869 227.544 213.36 226.764 209.706 C 226.712 209.46 226.315 209.515 226.326 209.766 C 226.552 214.81 223.037 218.086 219.654 221.301 C 216.564 224.239 214.117 227.618 213.363 231.899 C 212.63 236.059 214.292 240.014 216.403 243.51 C 218.598 247.147 221.673 250.279 225.443 252.269 C 225.908 252.514 226.32 251.807 225.854 251.565"/>
  <path id="path492" style="fill: rgb(207, 84, 41); fill-opacity: 1; fill-rule: nonzero; stroke: none;" d="M 234.687 250.809 C 232.312 248.189 230.051 245.546 228.731 242.221 C 227.471 239.045 226.987 235.559 226.422 232.209 C 225.758 228.274 225.748 224.597 226.572 220.689 C 227.321 217.132 228.393 213.593 228.906 209.994 C 228.946 209.716 228.567 209.594 228.476 209.875 C 227.275 213.605 226.505 217.6 225.723 221.437 C 224.972 225.12 225.149 228.705 225.742 232.396 C 226.333 236.066 226.927 239.815 228.376 243.26 C 229.676 246.352 231.934 248.883 234.15 251.346 C 234.479 251.712 235.016 251.172 234.687 250.809"/>
  <path id="path494" style="fill: rgb(207, 84, 41); fill-opacity: 1; fill-rule: nonzero; stroke: none;" d="M 246.433 228.568 C 244.576 225.153 242.033 221.847 239.143 219.244 C 237.703 217.946 235.989 217.08 234.334 216.101 C 232.093 214.777 230.829 213.163 230.372 210.6 C 230.354 210.496 230.201 210.509 230.174 210.6 C 229.234 213.843 233.203 216.254 235.464 217.598 C 239.103 219.76 241.781 222.926 244.129 226.408 C 248.577 233.005 250.741 242.018 245.842 249 C 245.527 249.449 246.256 249.86 246.571 249.426 C 251.113 243.171 249.927 234.993 246.433 228.568"/>
  <path id="path496" style="fill: rgb(207, 84, 41); fill-opacity: 1; fill-rule: nonzero; stroke: none;" d="M 253.861 224.199 C 251.612 221.335 248.441 219.336 245.236 217.707 C 243.518 216.834 241.74 216.063 239.961 215.322 C 237.844 214.44 235.735 213.407 233.527 212.781 C 233.437 212.755 233.387 212.882 233.464 212.93 C 236.614 214.876 240.228 216.153 243.557 217.768 C 246.702 219.295 249.696 221.133 252.135 223.664 C 257.327 229.053 257.054 236.741 253.584 242.986 C 253.263 243.565 254.147 244.081 254.469 243.504 C 257.929 237.324 258.379 229.952 253.861 224.199"/>
</svg>