<?xml version="1.0" encoding="utf-8"?>
<svg viewBox="198.981 196.184 72.408 71.708" xmlns="http://www.w3.org/2000/svg">
  <path id="path530" style="fill:#f9ab2e;fill-opacity:1;fill-rule:nonzero;stroke:none" d="M 259.477 244.734 C 253.941 255.806 241.165 254.954 241.165 254.954 C 241.165 254.954 231.37 263.472 220.298 258.361 C 209.226 253.252 213.485 238.346 213.485 238.346 C 213.485 238.346 202.413 231.533 209.226 220.034 C 216.039 208.537 230.945 212.796 230.945 212.796 C 230.945 212.796 237.635 203.69 248.405 208.537 C 256.922 212.369 253.941 220.886 253.941 220.886 C 253.941 220.886 265.013 233.662 259.477 244.734 Z M 251.762 202.698 C 238.479 196.721 230.227 207.95 230.227 207.95 C 230.227 207.95 211.843 202.698 203.441 216.88 C 195.037 231.061 208.693 239.465 208.693 239.465 C 208.693 239.465 203.441 257.848 217.097 264.15 C 230.753 270.453 242.833 259.949 242.833 259.949 C 242.833 259.949 258.59 261 265.418 247.342 C 272.246 233.686 258.59 217.93 258.59 217.93 C 258.59 217.93 262.266 207.425 251.762 202.698"/>
  <path id="path892" style="fill:#14ac4f;fill-opacity:1;fill-rule:nonzero;stroke:none" d="M 262.191 242.522 C 256.655 253.594 243.879 252.742 243.879 252.742 C 243.879 252.742 234.085 261.26 223.013 256.149 C 211.941 251.04 216.199 236.134 216.199 236.134 C 216.199 236.134 205.127 229.321 211.941 217.822 C 218.754 206.325 233.659 210.584 233.659 210.584 C 233.659 210.584 240.35 201.478 251.119 206.325 C 259.637 210.157 256.655 218.674 256.655 218.674 C 256.655 218.674 267.727 231.45 262.191 242.522 Z M 261.305 215.717 C 261.305 215.717 264.981 205.213 254.477 200.486 C 241.194 194.509 232.942 205.738 232.942 205.738 C 232.942 205.738 214.558 200.486 206.155 214.668 C 197.751 228.849 211.407 237.253 211.407 237.253 C 211.407 237.253 206.155 255.636 219.811 261.938 C 233.467 268.241 245.547 257.737 245.547 257.737 C 245.547 257.737 261.305 258.788 268.133 245.13 C 274.961 231.474 261.305 215.717 261.305 215.717"/>
</svg>