<?xml version="1.0" encoding="utf-8"?>
<svg viewBox="198.981 196.184 72.408 71.708" xmlns="http://www.w3.org/2000/svg">
  <defs>
    <radialGradient id="radialGradient216" spreadMethod="pad" gradientTransform="matrix(284.335419, 0, 0, 284.335358, 402.482452, 173.56987)" gradientUnits="userSpaceOnUse" r="1" cy="0" cx="0">
      <stop id="stop212" offset="0" style="stop-opacity:1;stop-color:#ecd9d7"/>
      <stop id="stop214" offset="1" style="stop-opacity:1;stop-color:#caab95"/>
    </radialGradient>
    <radialGradient id="radialGradient232" spreadMethod="pad" gradientTransform="matrix(284.335419, 0, 0, 284.335358, 402.482452, 173.56987)" gradientUnits="userSpaceOnUse" r="1" cy="0" cx="0">
      <stop id="stop228" offset="0" style="stop-opacity:1;stop-color:#ecd9d7"/>
      <stop id="stop230" offset="1" style="stop-opacity:1;stop-color:#caab95"/>
    </radialGradient>
  </defs>
  <path id="path218" style="fill: url(#radialGradient216); fill-opacity: 1; fill-rule: nonzero; stroke: none;" d="M 221.827 252.03 C 221.532 252.03 221.236 252.007 220.941 251.958 C 219.313 251.69 217.902 250.683 216.841 249.398 C 215.814 249.137 214.856 248.443 214.072 247.687 C 210.467 244.211 208.589 239.307 207.507 234.417 C 206.948 231.89 206.572 229.279 206.929 226.715 C 207.286 224.152 208.45 221.618 210.504 220.043 C 211.718 219.112 213.264 218.583 214.784 218.583 C 215.496 218.583 216.202 218.699 216.864 218.944 C 218.565 217.729 220.651 217.026 222.698 217.026 C 223.272 217.026 223.843 217.081 224.401 217.196 C 225.122 215.355 226.166 213.612 227.325 212.006 C 227.758 211.405 228.22 210.806 228.83 210.385 C 229.275 210.078 229.814 209.877 230.348 209.877 C 230.547 209.877 230.744 209.904 230.935 209.965 C 228.669 212.318 227.583 215.718 227.929 218.957 C 228.072 219.082 228.209 219.213 228.342 219.347 C 229.033 219.153 229.758 219.061 230.489 219.061 C 232.24 219.061 234.021 219.589 235.419 220.519 C 237.786 222.095 239.128 224.629 239.54 227.192 C 239.951 229.756 239.518 232.367 238.873 234.894 C 237.627 239.783 235.461 244.688 231.306 248.163 C 230.164 249.118 228.706 249.984 227.165 249.984 C 226.998 249.984 226.831 249.974 226.663 249.953 C 225.347 251.189 223.601 252.03 221.827 252.03"/>
  <path id="path234" style="fill: url(#radialGradient232); fill-opacity: 1; fill-rule: nonzero; stroke: none;" d="M 252.724 250.95 C 252.47 250.95 252.215 250.931 251.961 250.889 C 250.55 250.656 249.328 249.784 248.41 248.671 C 247.519 248.445 246.689 247.843 246.01 247.188 C 242.887 244.177 241.26 239.928 240.323 235.693 C 239.839 233.503 239.512 231.241 239.822 229.021 C 240.131 226.8 241.14 224.604 242.919 223.239 C 243.97 222.433 245.311 221.974 246.627 221.974 C 247.243 221.974 247.855 222.075 248.428 222.288 C 249.875 221.255 251.643 220.65 253.386 220.627 C 254.006 219.113 254.873 217.678 255.83 216.35 C 256.206 215.83 256.606 215.311 257.134 214.946 C 257.519 214.68 257.987 214.505 258.45 214.505 C 258.621 214.505 258.793 214.529 258.958 214.581 C 257.268 216.336 256.333 218.763 256.296 221.194 C 256.504 221.286 256.709 221.387 256.908 221.503 C 257.456 221.818 257.94 222.202 258.372 222.637 C 258.97 222.469 259.599 222.389 260.232 222.389 C 261.748 222.389 263.292 222.846 264.504 223.652 C 266.555 225.017 267.717 227.212 268.073 229.433 C 268.43 231.654 268.054 233.916 267.496 236.106 C 266.416 240.341 264.54 244.59 260.94 247.601 C 259.951 248.428 258.688 249.179 257.352 249.179 C 257.204 249.179 257.056 249.17 256.906 249.15 C 255.766 250.219 254.259 250.95 252.724 250.95"/>
  <path id="path462" style="fill: rgb(20, 172, 79); fill-opacity: 1; fill-rule: nonzero; stroke: none;" d="M 221.041 218.199 C 221.11 214.585 222.85 211.202 224.965 208.27 C 225.398 207.669 225.86 207.07 226.47 206.649 C 227.081 206.228 227.869 206.005 228.576 206.229 C 225.731 209.182 224.738 213.784 226.112 217.647 C 224.965 217.851 222.188 217.996 221.041 218.199"/>
  <path id="path464" style="fill: rgb(233, 39, 50); fill-opacity: 1; fill-rule: nonzero; stroke: none;" d="M 219.241 222.333 C 218.639 219.765 217.676 217.018 215.422 215.649 C 213.21 214.304 210.198 214.731 208.144 216.307 C 206.09 217.882 204.926 220.415 204.569 222.98 C 204.213 225.544 204.589 228.154 205.148 230.681 C 206.229 235.571 208.108 240.475 211.713 243.951 C 212.835 245.033 214.309 246.01 215.843 245.732 C 217.801 245.377 218.822 243.223 219.34 241.302 C 221.003 235.134 220.7 228.552 219.241 222.333"/>
  <path id="path466" style="fill: rgb(233, 39, 50); fill-opacity: 1; fill-rule: nonzero; stroke: none;" d="M 220.268 222.81 C 220.962 220.241 222.072 217.495 224.671 216.125 C 227.221 214.781 230.692 215.208 233.06 216.783 C 235.427 218.358 236.769 220.892 237.181 223.456 C 237.592 226.02 237.158 228.63 236.514 231.158 C 235.267 236.047 233.102 240.952 228.946 244.427 C 227.653 245.509 225.953 246.486 224.185 246.209 C 221.928 245.853 220.751 243.699 220.153 241.779 C 218.237 235.611 218.586 229.029 220.268 222.81"/>
  <path id="path468" style="fill: rgb(239, 46, 56); fill-opacity: 1; fill-rule: nonzero; stroke: none;" d="M 224.292 214.301 C 220.808 212.292 216.087 213.42 213.247 216.268 C 210.406 219.115 209.247 223.308 209.283 227.329 C 209.319 231.351 210.425 235.278 211.556 239.138 C 212.126 241.081 212.718 243.05 213.811 244.756 C 214.904 246.46 216.584 247.893 218.582 248.222 C 220.802 248.588 223.081 247.519 224.633 245.891 C 226.186 244.263 227.112 242.141 227.815 240.004 C 229.419 235.124 230.009 229.913 229.536 224.799 C 229.162 220.748 227.817 216.333 224.292 214.301"/>
  <path id="path470" style="fill: rgb(12, 140, 71); fill-opacity: 1; fill-rule: nonzero; stroke: none;" d="M 250.071 221.215 C 250.13 218.085 251.639 215.153 253.47 212.614 C 253.846 212.093 254.246 211.575 254.774 211.21 C 255.303 210.845 255.986 210.652 256.599 210.846 C 254.135 213.405 253.275 217.39 254.465 220.737 C 253.471 220.914 251.065 221.039 250.071 221.215"/>
  <path id="path472" style="fill: rgb(12, 140, 71); fill-opacity: 1; fill-rule: nonzero; stroke: none;" d="M 250.172 224.725 C 249.651 222.5 248.817 220.12 246.863 218.933 C 244.947 217.769 242.339 218.139 240.559 219.503 C 238.78 220.868 237.771 223.064 237.462 225.284 C 237.153 227.506 237.479 229.767 237.963 231.957 C 238.9 236.192 240.528 240.441 243.651 243.452 C 244.622 244.389 245.9 245.236 247.228 244.995 C 248.925 244.687 249.81 242.822 250.258 241.158 C 251.699 235.814 251.436 230.112 250.172 224.725"/>
  <path id="path474" style="fill: rgb(12, 140, 71); fill-opacity: 1; fill-rule: nonzero; stroke: none;" d="M 251.062 225.137 C 251.663 222.912 252.625 220.533 254.876 219.346 C 257.085 218.181 260.092 218.551 262.144 219.916 C 264.195 221.282 265.357 223.476 265.714 225.697 C 266.07 227.918 265.695 230.18 265.136 232.369 C 264.056 236.606 262.18 240.854 258.58 243.865 C 257.459 244.802 255.987 245.648 254.455 245.408 C 252.5 245.101 251.48 243.234 250.963 241.57 C 249.302 236.227 249.605 230.525 251.062 225.137"/>
  <path id="path476" style="fill: rgb(20, 172, 79); fill-opacity: 1; fill-rule: nonzero; stroke: none;" d="M 254.549 217.766 C 251.53 216.026 247.44 217.003 244.979 219.47 C 242.519 221.937 241.515 225.568 241.545 229.053 C 241.577 232.537 242.535 235.939 243.515 239.282 C 244.009 240.966 244.522 242.673 245.468 244.149 C 246.416 245.625 247.87 246.867 249.601 247.152 C 251.524 247.469 253.498 246.543 254.843 245.133 C 256.188 243.723 256.991 241.884 257.6 240.033 C 258.99 235.805 259.501 231.292 259.092 226.86 C 258.767 223.351 257.602 219.527 254.549 217.766"/>
</svg>