<?xml version="1.0" encoding="utf-8"?>
<svg viewBox="198.981 196.184 72.408 71.708" xmlns="http://www.w3.org/2000/svg">
  <path id="path498" style="fill: rgb(247, 153, 46); fill-opacity: 1; fill-rule: nonzero; stroke: none;" d="M 233.633 199.427 C 213.716 200.277 202.751 214.923 201.521 224.548 C 200.292 234.172 199.677 254.472 219.607 262.961 C 239.538 271.45 252.579 264.806 261.068 255.702 C 269.556 246.598 271.987 228.573 265.973 217.236 C 259.96 205.899 249.257 198.759 233.633 199.427"/>
  <path id="path500" style="fill: rgb(248, 172, 52); fill-opacity: 1; fill-rule: nonzero; stroke: none;" d="M 233.693 200.762 C 214.566 201.579 204.035 215.645 202.855 224.888 C 201.674 234.131 201.083 253.626 220.224 261.779 C 239.364 269.931 251.888 263.551 260.041 254.808 C 268.193 246.065 270.527 228.753 264.752 217.866 C 258.977 206.978 248.698 200.121 233.693 200.762"/>
  <path id="path502" style="fill: rgb(239, 46, 56); fill-opacity: 1; fill-rule: nonzero; stroke: none;" d="M 226.866 204.602 C 221.317 205.511 223.298 207.912 218.377 209.355 C 213.456 210.797 206.689 218.406 205.705 225.305 C 204.721 232.204 205.09 235.895 206.444 238.724 C 207.797 241.554 208.289 250.166 211.734 253.242 C 215.178 256.317 220.961 259.639 227.604 261.484 C 234.248 263.33 241.752 263.699 245.32 261.484 C 248.888 259.27 252.456 257.425 255.162 255.579 C 257.869 253.734 262.298 248.787 264.02 243.818 C 265.743 238.848 265.005 231.492 264.02 226.25 C 263.036 221.009 261.56 216.703 257.377 213.812 C 253.194 210.92 250.241 207.551 245.566 206.037 C 240.891 204.523 233.141 203.575 226.866 204.602"/>
  <path id="path504" style="fill: rgb(249, 171, 46); fill-opacity: 1; fill-rule: nonzero; stroke: none;" d="M 226.196 206.247 C 225.671 206.676 225.268 207.256 224.676 207.588 C 224.001 207.966 223.155 207.978 222.513 208.408 C 221.687 208.962 221.394 210.075 220.576 210.641 C 219.65 211.282 218.346 211.036 217.339 211.543 C 215.98 212.229 215.556 214.059 214.226 214.798 C 213.594 215.15 212.819 215.213 212.22 215.617 C 211.704 215.964 211.38 216.523 211.082 217.065 C 209.279 220.347 207.765 223.784 206.565 227.325 C 206.414 227.771 206.266 228.236 206.33 228.701 C 206.397 229.192 206.691 229.622 206.827 230.099 C 207.352 231.947 205.487 234.191 206.713 235.68 C 207.138 236.197 207.857 236.455 208.175 237.043 C 208.381 237.425 208.379 237.88 208.372 238.313 C 208.354 239.369 208.336 240.424 208.319 241.48 C 208.313 241.865 208.308 242.263 208.455 242.62 C 208.615 243.009 208.937 243.307 209.22 243.621 C 210.731 245.296 211.263 247.78 210.569 249.918 C 212.497 250.215 214.239 251.51 215.066 253.259 C 215.279 253.709 215.455 254.214 215.863 254.504 C 216.395 254.882 217.121 254.767 217.768 254.865 C 219.037 255.057 219.987 256.066 220.957 256.899 C 223.011 258.66 225.523 259.799 227.998 260.914 C 228.789 261.271 229.592 261.631 230.451 261.766 C 232.258 262.049 234.097 261.307 235.916 261.508 C 236.51 261.573 237.093 261.739 237.691 261.751 C 238.386 261.765 239.067 261.571 239.731 261.364 C 245.09 259.692 250.136 257.044 254.542 253.594 C 254.887 253.323 255.232 253.044 255.496 252.694 C 255.765 252.337 255.938 251.92 256.169 251.537 C 257.192 249.84 259.373 248.701 259.48 246.727 C 259.511 246.155 259.368 245.513 259.72 245.059 C 259.957 244.753 260.354 244.627 260.704 244.458 C 263.015 243.339 263.378 240.288 263.433 237.743 C 263.487 235.252 263.54 232.762 263.594 230.271 C 263.604 229.834 263.612 229.387 263.471 228.972 C 263.285 228.422 262.848 227.961 262.769 227.386 C 262.699 226.877 262.925 226.377 262.985 225.867 C 263.176 224.243 261.737 222.931 260.436 221.922 C 261.377 221.263 260.881 219.762 260.084 218.939 C 259.287 218.115 258.205 217.359 258.122 216.221 C 257.14 216.475 256.26 215.577 255.721 214.726 C 255.182 213.875 254.578 212.871 253.57 212.745 C 253.217 212.701 252.824 212.77 252.53 212.57 C 252.057 212.247 252.206 211.541 252.129 210.977 C 251.939 209.593 250.285 208.996 248.904 208.703 C 247.524 208.411 245.867 207.882 245.593 206.511 C 243.811 207.098 241.817 207.025 240.084 206.31 C 239.494 206.066 238.927 205.749 238.301 205.619 C 237.27 205.406 236.211 205.721 235.16 205.797 C 233.628 205.908 232.111 205.505 230.584 205.336 C 229.057 205.167 227.38 205.278 226.196 206.247"/>
  <path id="path506" style="fill: rgb(251, 199, 58); fill-opacity: 1; fill-rule: nonzero; stroke: none;" d="M 226.664 207.709 C 226.168 208.115 225.786 208.664 225.225 208.978 C 224.587 209.336 223.786 209.348 223.179 209.754 C 222.397 210.279 222.119 211.332 221.345 211.868 C 220.469 212.475 219.234 212.241 218.281 212.722 C 216.995 213.37 216.594 215.103 215.335 215.803 C 214.737 216.135 214.004 216.194 213.437 216.577 C 212.948 216.906 212.642 217.434 212.359 217.948 C 210.653 221.054 209.221 224.307 208.085 227.659 C 207.942 228.08 207.802 228.521 207.862 228.961 C 207.926 229.425 208.204 229.833 208.332 230.284 C 208.83 232.033 207.064 234.156 208.224 235.566 C 208.627 236.056 209.308 236.299 209.608 236.856 C 209.803 237.218 209.801 237.648 209.795 238.058 C 209.778 239.057 209.761 240.056 209.744 241.055 C 209.738 241.42 209.734 241.796 209.873 242.134 C 210.025 242.503 210.329 242.784 210.597 243.082 C 212.028 244.667 212.531 247.018 211.874 249.041 C 213.699 249.323 215.348 250.548 216.13 252.204 C 216.332 252.63 216.498 253.107 216.885 253.382 C 217.388 253.74 218.075 253.631 218.688 253.724 C 219.889 253.905 220.788 254.861 221.706 255.648 C 223.65 257.316 226.028 258.394 228.37 259.449 C 229.118 259.787 229.879 260.127 230.691 260.255 C 232.402 260.524 234.142 259.821 235.864 260.011 C 236.426 260.073 236.978 260.23 237.544 260.241 C 238.202 260.255 238.846 260.071 239.474 259.875 C 244.546 258.292 249.322 255.786 253.492 252.52 C 253.819 252.264 254.146 252 254.395 251.669 C 254.649 251.332 254.814 250.936 255.033 250.574 C 256.001 248.967 258.065 247.889 258.166 246.021 C 258.195 245.48 258.06 244.873 258.394 244.442 C 258.618 244.153 258.993 244.034 259.324 243.874 C 261.512 242.815 261.856 239.927 261.908 237.518 C 261.958 235.161 262.009 232.804 262.06 230.447 C 262.069 230.033 262.077 229.61 261.944 229.218 C 261.768 228.697 261.354 228.26 261.279 227.716 C 261.213 227.234 261.427 226.761 261.483 226.278 C 261.664 224.741 260.303 223.499 259.071 222.545 C 259.961 221.921 259.492 220.501 258.738 219.721 C 257.984 218.942 256.959 218.226 256.881 217.15 C 255.951 217.39 255.119 216.539 254.608 215.734 C 254.098 214.928 253.527 213.978 252.573 213.86 C 252.238 213.818 251.866 213.883 251.588 213.693 C 251.14 213.388 251.282 212.719 251.209 212.186 C 251.029 210.876 249.463 210.311 248.157 210.034 C 246.851 209.757 245.281 209.256 245.023 207.959 C 243.337 208.514 241.448 208.445 239.809 207.768 C 239.25 207.538 238.713 207.238 238.121 207.115 C 237.145 206.913 236.143 207.212 235.148 207.283 C 233.698 207.388 232.263 207.006 230.818 206.847 C 229.372 206.687 227.785 206.792 226.664 207.709"/>
</svg>