<?xml version="1.0" encoding="utf-8"?>
<svg viewBox="198.981 196.184 72.408 71.708" xmlns="http://www.w3.org/2000/svg">
  <path id="path-1" style="fill:#f9ab2e;fill-opacity:1;fill-rule:nonzero;stroke:none" d="M 244.634 199.987 C 230.26 195.299 213.106 201.28 204.765 213.891 C 201.046 219.512 199.009 226.232 198.981 232.971 C 198.957 238.739 200.393 244.505 203.118 249.588 C 210.265 262.912 226.794 270.447 241.54 267.101 C 256.285 263.756 267.943 249.825 268.639 234.721 C 269.337 219.619 259.009 204.675 244.634 199.987"/>
  <path id="path-2" style="fill:#b01e28;fill-opacity:1;fill-rule:nonzero;stroke:none" d="M 201.696 230.759 C 201.672 236.527 203.108 242.293 205.833 247.376 C 212.98 260.7 229.509 268.235 244.254 264.889 C 258.999 261.544 270.658 247.613 271.356 232.509 C 272.051 217.407 261.724 202.463 247.349 197.775 C 232.974 193.087 215.821 199.068 207.48 211.679 C 203.761 217.3 201.724 224.02 201.696 230.759"/>
  <path id="path-3" style="fill:#f14c45;fill-opacity:1;fill-rule:nonzero;stroke:none" d="M 238.592 209.315 C 238.954 207.047 237.105 204.669 234.817 204.464 C 232.853 204.287 230.865 205.687 230.369 207.595 C 229.873 209.503 230.929 211.693 232.73 212.495 C 235.076 213.536 238.186 211.849 238.592 209.315"/>
  <path id="path-4" style="fill:#f14c45;fill-opacity:1;fill-rule:nonzero;stroke:none" d="M 263.189 228.156 C 262.25 227.123 260.771 226.608 259.396 226.836 C 256.962 227.239 255.288 230.127 256.145 232.437 C 257.002 234.749 260.154 235.845 262.261 234.565 C 264.367 233.284 264.846 229.981 263.189 228.156"/>
  <path id="path-5" style="fill:#f14c45;fill-opacity:1;fill-rule:nonzero;stroke:none" d="M 248.56 229.531 C 249.18 228.728 249.751 227.8 249.721 226.787 C 249.685 225.635 248.834 224.613 247.784 224.141 C 246.733 223.668 245.522 223.673 244.392 223.896 C 242.59 224.252 240.834 225.211 239.897 226.789 C 238.96 228.367 239.048 230.603 240.384 231.861 C 241.549 232.96 243.393 233.103 244.89 232.535 C 246.388 231.967 247.582 230.8 248.56 229.531"/>
  <path id="path-6" style="fill:#f14c45;fill-opacity:1;fill-rule:nonzero;stroke:none" d="M 222.692 227.715 C 221.664 228.709 220.778 229.911 220.43 231.299 C 220.081 232.687 220.344 234.281 221.345 235.304 C 222.396 236.377 224.068 236.645 225.537 236.332 C 227.006 236.02 228.316 235.211 229.56 234.371 C 231.25 233.228 233.029 231.753 233.21 229.721 C 233.417 227.408 231.236 225.363 228.925 225.132 C 226.614 224.9 224.361 226.1 222.692 227.715"/>
  <path id="path-7" style="fill:#f14c45;fill-opacity:1;fill-rule:nonzero;stroke:none" d="M 235.86 246.415 C 234.237 247.38 232.964 249.127 233.038 251.015 C 233.113 252.901 234.88 254.693 236.744 254.388 C 238.37 254.12 239.415 252.547 240.158 251.075 C 240.841 249.725 241.421 248.028 240.568 246.78 C 239.587 245.347 237.352 245.527 235.86 246.415"/>
  <path id="path-8" style="fill:#f14c45;fill-opacity:1;fill-rule:nonzero;stroke:none" d="M 256.645 254.079 C 258.609 254.191 260.558 252.8 261.092 250.907 C 261.642 248.953 260.618 246.677 258.79 245.795 C 256.962 244.912 254.542 245.524 253.354 247.171 C 252.168 248.816 252.349 251.307 253.764 252.763 C 254.516 253.537 255.566 254.017 256.645 254.079"/>
  <path id="path-9" style="fill:#f14c45;fill-opacity:1;fill-rule:nonzero;stroke:none" d="M 221.549 239.691 C 219.321 239.929 217.456 241.983 217.362 244.221 C 217.269 246.459 218.904 248.632 221.061 249.232 C 223.22 249.832 225.699 248.855 226.93 246.983 C 228.042 245.291 228.094 242.919 226.929 241.263 C 225.765 239.607 223.398 238.864 221.549 239.691"/>
  <path id="path-10" style="fill:#f14c45;fill-opacity:1;fill-rule:nonzero;stroke:none" d="M 214.573 219.067 C 214.713 221.431 217.101 223.411 219.45 223.109 C 221.798 222.808 223.61 220.288 223.148 217.965 C 222.942 216.936 222.312 215.956 221.36 215.512 C 220.409 215.067 219.144 215.269 218.506 216.104 C 217.686 215.48 216.437 215.617 215.649 216.283 C 214.862 216.949 214.513 218.037 214.573 219.067"/>
  <path id="path-11" style="fill:#f14c45;fill-opacity:1;fill-rule:nonzero;stroke:none" d="M 250.029 218.695 C 252.346 218.069 253.713 215.137 252.699 212.961 C 251.34 211.957 249.417 211.685 247.913 212.457 C 246.409 213.229 245.497 215.099 245.994 216.713 C 246.493 218.328 248.478 219.367 250.029 218.695"/>
</svg>