<?xml version="1.0" encoding="utf-8"?>
<svg viewBox="0 0 500 500" xmlns="http://www.w3.org/2000/svg">
  <g transform="matrix(5.369133, 0, 0, -5.369133, 98.597832, 456.744873)" id="g1068">
    <path id="path1070" style="fill:#f9cce0;fill-opacity:1;fill-rule:nonzero;stroke:none" d="M 0,0 C -5.466,27.062 3.03,52.115 4.299,78.93 16.157,70.868 57.394,25.378 71.404,18.386 l -0.787,1.531 C 58.344,26.335 15.31,73.034 3.452,81.096 2.182,54.282 -6.313,29.228 -0.848,2.167 L 0,0 Z"/>
  </g>
  <g transform="matrix(5.369133, 0, 0, -5.369133, 121.681435, 32.957886)" id="g1072">
    <path id="path1074" style="fill:#fbd6e6;fill-opacity:1;fill-rule:nonzero;stroke:none" d="M 0,0 C 11.858,-8.063 53.095,-53.552 67.105,-60.544 47.182,-72.573 18.181,-74.718 -4.299,-78.93 -9.765,-51.869 -1.27,-26.815 0,0"/>
  </g>
  <g transform="matrix(5.369133, 0, 0, -5.369133, 205.603226, 407.507721)" id="g1076">
    <path id="path1078" style="fill:#fce0ec;fill-opacity:1;fill-rule:nonzero;stroke:none" d="M 0,0 C 3.052,2.543 -12.351,22.402 -14.986,20.939 -17.442,19.576 -3.052,-2.543 0,0 m 10.72,23.253 c 0.636,1.28 -0.514,3.146 -2.571,4.169 -2.056,1.023 -4.24,0.815 -4.876,-0.465 -0.637,-1.28 0.514,-3.147 2.571,-4.17 2.056,-1.023 4.239,-0.814 4.876,0.466 M 12.905,7.292 c 0.908,-1.474 14.683,1.392 16.212,3.604 1.552,2.245 -1.476,8.367 -4.756,8.229 C 21.08,18.987 11.997,8.765 12.905,7.292 M 3.95,40.589 c 0.492,2.128 -9.918,11.367 -12.618,10.591 -2.212,-0.637 -5.126,-15.393 -3.246,-16.949 1.882,-1.555 15.373,4.232 15.864,6.358"/>
  </g>
</svg>