<?xml version="1.0" encoding="utf-8"?>
<svg viewBox="198.981 196.184 72.408 71.708" xmlns="http://www.w3.org/2000/svg">
  <defs>
    <radialGradient id="radialGradient168" spreadMethod="pad" gradientTransform="matrix(283.249451, 0, 0, 320.870483, 413.782043, 252.593674)" gradientUnits="userSpaceOnUse" r="1" cy="0" cx="0">
      <stop id="stop164" offset="0" style="stop-opacity:1;stop-color:#ecd9d7"/>
      <stop id="stop166" offset="1" style="stop-opacity:1;stop-color:#caab95"/>
    </radialGradient>
  </defs>
  <path id="path170" style="fill: url(#radialGradient168); fill-opacity: 1; fill-rule: nonzero; stroke: none;" d="M 251.936 251.762 C 249.261 251.762 244.492 251.033 242.615 249.818 C 241.059 248.811 239.808 247.297 238.865 245.56 C 238.797 245.643 238.734 245.73 238.665 245.813 C 234.896 250.321 230.038 251.389 224.559 251.602 C 224.098 251.619 223.633 251.629 223.165 251.629 C 218.006 251.629 212.53 250.449 209.297 246.006 C 207.555 243.613 206.69 240.516 206.467 237.426 C 206.072 231.981 207.739 226.21 211.419 222.676 C 212.554 221.587 213.888 220.758 215.305 220.22 C 213.867 219.106 212.643 217.65 211.792 215.915 C 214.01 216.158 216.227 216.4 218.445 216.641 C 219.596 216.768 220.773 216.908 221.869 217.294 C 222.087 216.486 222.502 215.711 222.863 214.957 C 223.425 213.781 223.863 212.292 223.239 211.156 C 224.599 212.189 225.997 213.265 226.887 214.822 C 227.308 215.555 227.579 216.428 227.655 217.301 C 228.752 216.499 230.038 216.023 231.295 215.573 C 233.419 214.812 235.543 214.052 237.667 213.291 C 237.08 215.463 235.946 217.392 234.482 218.933 C 234.555 218.945 234.628 218.955 234.701 218.969 C 236.76 219.346 238.541 220.239 239.937 221.652 C 240.472 221.184 241.058 220.794 241.698 220.522 C 242.496 220.181 243.321 220.028 244.152 220.028 C 246.666 220.028 249.229 221.43 251.234 223.274 C 253.441 222.635 255.609 221.765 257.873 221.485 C 258.313 221.43 258.759 221.401 259.207 221.401 C 261.06 221.401 262.923 221.905 264.348 223.214 C 266.816 225.479 267.362 229.546 266.917 233.108 C 266.321 237.896 265.199 244.019 262.072 247.309 C 258.944 250.598 256.992 251.415 252.732 251.735 C 252.496 251.753 252.229 251.762 251.936 251.762"/>
  <path id="path406" style="fill: rgb(20, 172, 79); fill-opacity: 1; fill-rule: nonzero; stroke: none;" d="M 216.095 212.425 C 217.742 212.605 219.444 212.805 220.883 213.729 C 222.232 214.596 223.257 216.089 223.667 217.783 C 218.475 219.878 212.117 217.158 209.442 211.699 C 211.659 211.94 213.877 212.184 216.095 212.425"/>
  <path id="path408" style="fill: rgb(20, 172, 79); fill-opacity: 1; fill-rule: nonzero; stroke: none;" d="M 228.944 211.357 C 227.367 211.922 225.738 212.519 224.501 213.764 C 223.341 214.931 222.614 216.632 222.525 218.387 C 227.988 219.207 233.706 215.045 235.317 209.075 C 233.193 209.835 231.068 210.596 228.944 211.357"/>
  <path id="path410" style="fill: rgb(20, 172, 79); fill-opacity: 1; fill-rule: nonzero; stroke: none;" d="M 220.704 216.715 C 220.002 216.234 219.48 215.397 219.385 214.474 C 219.246 213.144 219.948 211.918 220.511 210.741 C 221.075 209.564 221.512 208.076 220.889 206.94 C 222.248 207.974 223.646 209.049 224.537 210.606 C 225.428 212.163 225.684 214.341 224.707 215.829 C 223.816 217.183 221.98 217.59 220.704 216.715"/>
  <path id="path412" style="fill: rgb(239, 46, 56); fill-opacity: 1; fill-rule: nonzero; stroke: none;" d="M 222.209 247.385 C 227.688 247.173 232.545 246.106 236.315 241.597 C 239.104 238.258 240.324 233.582 240.685 229.004 C 240.884 226.482 240.841 223.874 240.035 221.513 C 238.718 217.651 235.958 215.413 232.351 214.752 C 228.743 214.092 225.407 214.681 222.494 217.18 C 218.5 214.12 212.747 214.929 209.068 218.461 C 205.389 221.994 203.721 227.765 204.116 233.209 C 204.34 236.3 205.204 239.397 206.946 241.789 C 210.473 246.636 216.667 247.6 222.209 247.385"/>
  <path id="path414" style="fill: rgb(223, 38, 47); fill-opacity: 1; fill-rule: nonzero; stroke: none;" d="M 233.969 230.956 C 234.173 233.775 234.572 236.608 235.541 239.215 C 236.512 241.819 238.098 244.2 240.265 245.602 C 242.347 246.95 247.99 247.701 250.382 247.519 C 254.641 247.199 256.594 246.382 259.722 243.093 C 262.85 239.802 263.97 233.68 264.567 228.892 C 265.011 225.33 264.466 221.261 261.998 218.998 C 260.228 217.374 257.786 216.988 255.523 217.269 C 253.259 217.549 251.09 218.419 248.884 219.056 C 246.214 216.604 242.562 214.935 239.347 216.305 C 236.996 217.308 235.314 219.797 234.533 222.501 C 233.753 225.207 233.763 228.12 233.969 230.956"/>
  <path id="path416" style="fill: rgb(154, 26, 33); fill-opacity: 1; fill-rule: nonzero; stroke: none;" d="M 253.746 226.326 C 254.842 226.833 255.518 228.2 255.527 229.54 C 255.537 230.881 254.964 232.167 254.151 233.142 C 253.237 234.24 252.045 234.983 251.02 235.947 C 249.993 236.911 249.087 238.241 249.106 239.75 C 249.136 242.131 251.588 243.748 253.659 243.333 C 255.728 242.917 257.352 241.092 258.566 239.148 C 260.424 236.173 261.658 232.702 262.139 229.099 C 262.409 227.092 262.413 224.906 261.444 223.201 C 260.569 221.664 258.995 220.75 257.395 220.516 C 255.794 220.28 254.164 220.659 252.642 221.269 C 251.932 221.553 251.214 221.907 250.716 222.546 C 250.217 223.184 250.002 224.176 250.393 224.904 C 251.034 226.091 252.609 225.8 253.746 226.326"/>
  <path id="path418" style="fill: rgb(154, 26, 33); fill-opacity: 1; fill-rule: nonzero; stroke: none;" d="M 244.913 226.196 C 243.863 226.626 243.154 227.941 243.067 229.278 C 242.979 230.615 243.437 231.938 244.136 232.968 C 244.922 234.129 245.989 234.954 246.888 235.987 C 247.787 237.021 248.552 238.411 248.445 239.916 C 248.278 242.29 245.901 243.731 243.998 243.171 C 242.096 242.612 240.69 240.677 239.674 238.652 C 238.119 235.552 237.173 232.003 236.936 228.374 C 236.803 226.354 236.927 224.171 237.93 222.538 C 238.834 221.066 240.353 220.265 241.857 220.143 C 243.362 220.02 244.857 220.513 246.237 221.227 C 246.882 221.561 247.53 221.964 247.956 222.637 C 248.383 223.309 248.526 224.314 248.117 225.012 C 247.452 226.152 246.002 225.751 244.913 226.196"/>
  <path id="path420" style="fill: rgb(245, 125, 38); fill-opacity: 1; fill-rule: nonzero; stroke: none;" d="M 241.839 223.89 C 241.037 223.89 241.037 225.298 241.839 225.298 C 242.641 225.298 242.641 223.89 241.839 223.89"/>
  <path id="path422" style="fill: rgb(245, 125, 38); fill-opacity: 1; fill-rule: nonzero; stroke: none;" d="M 245.154 222.637 C 244.126 222.637 244.126 224.44 245.154 224.44 C 246.18 224.44 246.18 222.637 245.154 222.637"/>
  <path id="path424" style="fill: rgb(245, 125, 38); fill-opacity: 1; fill-rule: nonzero; stroke: none;" d="M 239.457 226.464 C 238.38 226.464 238.38 228.356 239.457 228.356 C 240.534 228.356 240.534 226.464 239.457 226.464"/>
  <path id="path426" style="fill: rgb(245, 125, 38); fill-opacity: 1; fill-rule: nonzero; stroke: none;" d="M 241.425 230.688 C 240.348 230.688 240.348 232.58 241.425 232.58 C 242.502 232.58 242.502 230.688 241.425 230.688"/>
  <path id="path428" style="fill: rgb(245, 125, 38); fill-opacity: 1; fill-rule: nonzero; stroke: none;" d="M 241.942 236.774 C 241.116 236.774 241.116 238.226 241.942 238.226 C 242.769 238.226 242.769 236.774 241.942 236.774"/>
  <path id="path430" style="fill: rgb(245, 125, 38); fill-opacity: 1; fill-rule: nonzero; stroke: none;" d="M 244.946 236.943 C 244.045 236.943 244.045 238.526 244.946 238.526 C 245.848 238.526 245.848 236.943 244.946 236.943"/>
  <path id="path432" style="fill: rgb(245, 125, 38); fill-opacity: 1; fill-rule: nonzero; stroke: none;" d="M 245.982 240.363 C 244.967 240.363 244.967 242.145 245.982 242.145 C 246.997 242.145 246.997 240.363 245.982 240.363"/>
  <path id="path436" style="fill: rgb(245, 125, 38); fill-opacity: 1; fill-rule: nonzero; stroke: none;" d="M 255.505 234.181 C 255.194 234.211 254.962 234.326 254.806 234.647 C 254.578 235.116 254.778 235.722 255.244 235.868 C 255.611 235.982 255.976 235.739 256.108 235.362 C 256.341 234.874 256.057 234.129 255.505 234.181"/>
  <path id="path438" style="fill: rgb(245, 125, 38); fill-opacity: 1; fill-rule: nonzero; stroke: none;" d="M 252.299 238.551 C 251.36 238.551 251.36 240.202 252.299 240.202 C 253.239 240.202 253.239 238.551 252.299 238.551"/>
  <path id="path440" style="fill: rgb(245, 125, 38); fill-opacity: 1; fill-rule: nonzero; stroke: none;" d="M 256.857 238.043 C 256.005 238.043 256.005 239.538 256.857 239.538 C 257.708 239.538 257.708 238.043 256.857 238.043"/>
  <path id="path442" style="fill: rgb(245, 125, 38); fill-opacity: 1; fill-rule: nonzero; stroke: none;" d="M 259.715 230.368 L 259.621 230.328 C 259.213 230.158 258.788 230.595 258.788 231.047 C 258.788 231.5 259.213 231.938 259.621 231.766 L 259.715 231.726 C 260.305 231.478 260.305 230.617 259.715 230.368"/>
  <path id="path444" style="fill: rgb(245, 125, 38); fill-opacity: 1; fill-rule: nonzero; stroke: none;" d="M 256.753 227.267 C 256.189 227.267 256.189 228.257 256.753 228.257 C 257.317 228.257 257.317 227.267 256.753 227.267"/>
  <path id="path446" style="fill: rgb(245, 125, 38); fill-opacity: 1; fill-rule: nonzero; stroke: none;" d="M 258.721 223.48 C 258.12 223.48 258.12 224.536 258.721 224.536 C 259.322 224.536 259.322 223.48 258.721 223.48"/>
  <path id="path448" style="fill: rgb(245, 125, 38); fill-opacity: 1; fill-rule: nonzero; stroke: none;" d="M 253.231 223.318 C 252.581 223.318 252.581 224.462 253.231 224.462 C 253.882 224.462 253.882 223.318 253.231 223.318"/>
  <path id="path450" style="fill: rgb(245, 125, 38); fill-opacity: 1; fill-rule: nonzero; stroke: none;" d="M 255.199 225.079 C 254.548 225.079 254.548 226.222 255.199 226.222 C 255.85 226.222 255.85 225.079 255.199 225.079"/>
  <path id="path452" style="fill: rgb(126, 86, 50); fill-opacity: 1; fill-rule: nonzero; stroke: none;"/>
  <path id="path454" style="fill: rgb(126, 86, 50); fill-opacity: 1; fill-rule: nonzero; stroke: none;"/>
  <path id="path456" style="fill: rgb(126, 86, 50); fill-opacity: 1; fill-rule: nonzero; stroke: none;"/>
  <path id="path458" style="fill: rgb(159, 109, 65); fill-opacity: 1; fill-rule: nonzero; stroke: none;"/>
  <path id="path460" style="fill: rgb(159, 109, 65); fill-opacity: 1; fill-rule: nonzero; stroke: none;"/>
  <path id="path186" style="fill: url(#radialGradient184); fill-opacity: 1; fill-rule: nonzero; stroke: none;"/>
  <path id="path202" style="fill: url(#radialGradient200); fill-opacity: 1; fill-rule: nonzero; stroke: none;"/>
</svg>