<?xml version="1.0" encoding="utf-8"?>
<svg viewBox="198.981 196.184 72.408 71.708" xmlns="http://www.w3.org/2000/svg">
  <path id="path516" style="fill: rgb(249, 171, 46); fill-opacity: 1; fill-rule: nonzero; stroke: none;" d="M 209.637 244.217 C 211.36 248.302 214.177 252.033 218.027 254.233 C 221.723 256.345 231.746 257.521 235.995 257.239 C 243.558 256.736 247.028 255.456 252.584 250.298 C 258.139 245.139 260.128 235.54 261.189 228.034 C 261.979 222.449 261.009 216.07 256.626 212.52 C 253.484 209.974 249.145 209.371 245.124 209.81 C 241.104 210.249 237.253 211.613 233.334 212.614 C 228.595 208.768 222.107 206.15 216.395 208.3 C 212.22 209.871 209.235 213.774 207.847 218.015 C 206.459 222.255 206.477 226.824 206.843 231.271 C 207.206 235.689 207.915 240.132 209.637 244.217"/>
  <path id="path676" style="fill: rgb(223, 38, 47); fill-opacity: 1; fill-rule: nonzero; stroke: none;" d="M 208.628 229.816 C 208.991 234.235 209.699 238.677 211.422 242.763 C 213.144 246.848 215.961 250.579 219.811 252.778 C 223.508 254.891 233.531 256.066 237.779 255.784 C 245.343 255.281 248.813 254.001 254.369 248.843 C 259.923 243.685 261.913 234.085 262.974 226.579 C 263.764 220.995 262.794 214.616 258.411 211.065 C 255.268 208.52 250.93 207.916 246.909 208.355 C 242.889 208.795 239.038 210.158 235.119 211.16 C 230.38 207.315 223.892 204.695 218.18 206.846 C 214.004 208.416 211.019 212.32 209.632 216.561 C 208.245 220.8 208.262 225.37 208.628 229.816"/>
  <path id="path678" style="fill: rgb(154, 26, 33); fill-opacity: 1; fill-rule: nonzero; stroke: none;" d="M 243.755 222.556 C 245.702 223.352 246.901 225.493 246.918 227.595 C 246.936 229.697 245.917 231.712 244.475 233.242 C 242.851 234.964 240.734 236.129 238.912 237.64 C 237.089 239.151 235.48 241.236 235.514 243.603 C 235.567 247.336 239.924 249.87 243.599 249.22 C 247.275 248.57 250.16 245.706 252.316 242.658 C 255.615 237.995 257.808 232.552 258.663 226.903 C 259.141 223.76 259.149 220.331 257.427 217.657 C 255.873 215.246 253.079 213.814 250.234 213.446 C 247.391 213.077 244.497 213.671 241.794 214.628 C 240.534 215.072 239.257 215.628 238.373 216.629 C 237.488 217.629 237.105 219.186 237.801 220.325 C 238.937 222.187 241.736 221.731 243.755 222.556"/>
  <path id="path680" style="fill: rgb(154, 26, 33); fill-opacity: 1; fill-rule: nonzero; stroke: none;" d="M 228.067 222.353 C 226.202 223.026 224.944 225.088 224.787 227.184 C 224.631 229.28 225.446 231.355 226.687 232.97 C 228.084 234.789 229.979 236.083 231.574 237.703 C 233.171 239.323 234.53 241.504 234.342 243.863 C 234.044 247.584 229.82 249.844 226.441 248.967 C 223.063 248.09 220.567 245.054 218.762 241.88 C 216 237.022 214.32 231.457 213.898 225.766 C 213.662 222.6 213.883 219.178 215.663 216.617 C 217.27 214.308 219.966 213.052 222.638 212.861 C 225.31 212.67 227.966 213.442 230.42 214.563 C 231.563 215.085 232.714 215.718 233.471 216.771 C 234.229 217.824 234.482 219.402 233.758 220.496 C 232.577 222.283 230.001 221.654 228.067 222.353"/>
  <path id="path682" style="fill: rgb(245, 125, 38); fill-opacity: 1; fill-rule: nonzero; stroke: none;" d="M 222.607 218.737 C 221.183 218.737 221.183 220.945 222.607 220.945 C 224.031 220.945 224.031 218.737 222.607 218.737"/>
  <path id="path684" style="fill: rgb(245, 125, 38); fill-opacity: 1; fill-rule: nonzero; stroke: none;" d="M 228.493 216.771 C 226.669 216.771 226.669 219.599 228.493 219.599 C 230.317 219.599 230.317 216.771 228.493 216.771"/>
  <path id="path686" style="fill: rgb(245, 125, 38); fill-opacity: 1; fill-rule: nonzero; stroke: none;" d="M 218.377 222.773 C 216.463 222.773 216.463 225.738 218.377 225.738 C 220.289 225.738 220.289 222.773 218.377 222.773"/>
  <path id="path688" style="fill: rgb(245, 125, 38); fill-opacity: 1; fill-rule: nonzero; stroke: none;" d="M 221.87 229.395 C 219.958 229.395 219.958 232.36 221.87 232.36 C 223.784 232.36 223.784 229.395 221.87 229.395"/>
  <path id="path690" style="fill: rgb(245, 125, 38); fill-opacity: 1; fill-rule: nonzero; stroke: none;" d="M 222.791 238.937 C 221.323 238.937 221.323 241.214 222.791 241.214 C 224.258 241.214 224.258 238.937 222.791 238.937"/>
  <path id="path692" style="fill: rgb(245, 125, 38); fill-opacity: 1; fill-rule: nonzero; stroke: none;" d="M 228.126 239.201 C 226.524 239.201 226.524 241.685 228.126 241.685 C 229.727 241.685 229.727 239.201 228.126 239.201"/>
  <path id="path694" style="fill: rgb(245, 125, 38); fill-opacity: 1; fill-rule: nonzero; stroke: none;" d="M 229.965 244.564 C 228.163 244.564 228.163 247.358 229.965 247.358 C 231.766 247.358 231.766 244.564 229.965 244.564"/>
  <path id="path698" style="fill: rgb(245, 125, 38); fill-opacity: 1; fill-rule: nonzero; stroke: none;" d="M 246.879 234.871 C 246.326 234.916 245.915 235.1 245.637 235.602 C 245.232 236.337 245.589 237.288 246.416 237.516 C 247.069 237.695 247.714 237.314 247.952 236.722 C 248.364 235.959 247.859 234.79 246.879 234.871"/>
  <path id="path700" style="fill: rgb(245, 125, 38); fill-opacity: 1; fill-rule: nonzero; stroke: none;" d="M 241.186 241.725 C 239.517 241.725 239.517 244.312 241.186 244.312 C 242.854 244.312 242.854 241.725 241.186 241.725"/>
  <path id="path702" style="fill: rgb(245, 125, 38); fill-opacity: 1; fill-rule: nonzero; stroke: none;" d="M 249.279 240.926 C 247.767 240.926 247.767 243.271 249.279 243.271 C 250.792 243.271 250.792 240.926 249.279 240.926"/>
  <path id="path704" style="fill: rgb(245, 125, 38); fill-opacity: 1; fill-rule: nonzero; stroke: none;" d="M 254.355 228.893 L 254.188 228.832 C 253.466 228.562 252.71 229.248 252.71 229.958 C 252.71 230.666 253.466 231.353 254.188 231.084 L 254.355 231.021 C 255.403 230.632 255.403 229.283 254.355 228.893"/>
  <path id="path706" style="fill: rgb(245, 125, 38); fill-opacity: 1; fill-rule: nonzero; stroke: none;" d="M 249.096 224.031 C 248.095 224.031 248.095 225.583 249.096 225.583 C 250.096 225.583 250.096 224.031 249.096 224.031"/>
  <path id="path708" style="fill: rgb(245, 125, 38); fill-opacity: 1; fill-rule: nonzero; stroke: none;" d="M 252.59 218.093 C 251.523 218.093 251.523 219.749 252.59 219.749 C 253.658 219.749 253.658 218.093 252.59 218.093"/>
  <path id="path710" style="fill: rgb(245, 125, 38); fill-opacity: 1; fill-rule: nonzero; stroke: none;" d="M 242.841 217.84 C 241.684 217.84 241.684 219.633 242.841 219.633 C 243.998 219.633 243.998 217.84 242.841 217.84"/>
  <path id="path712" style="fill: rgb(245, 125, 38); fill-opacity: 1; fill-rule: nonzero; stroke: none;" d="M 246.336 220.599 C 245.18 220.599 245.18 222.393 246.336 222.393 C 247.493 222.393 247.493 220.599 246.336 220.599"/>
</svg>